P1
# CREATOR: GIMP PNM Filter Version 1.1
48 16
0000000000000000000000000000000000000000000000000000000000000000000000
0000000000000000000000000000001100000000000000000000000000000000011100
0100000010000000110111111000001100000000101000111100000110000011000001
0001110011000010001000001000000001000000100000011000010011100011101100
0010000000010000001000000010000100111101101011000010000000010000011111
1000100001001001110010111000100000001000000110000000100011001000000010
1010001000000010000000100000001000100010000001001010001100000001000000
1100010010011001100000110110100001000000010000000111110110110001000000
1101111000010000000011111000000001111000110000001011001100011000000000
0110000000000000001100000110100001100011000000000000000000000000110000
00010000000010000000000000000000000000000000000000000000000000000000